<svg xmlns="http://www.w3.org/2000/svg" xmlns:xlink="http://www.w3.org/1999/xlink" width="720" zoomAndPan="magnify" viewBox="0 0 540 540.000001" height="720" preserveAspectRatio="xMidYMid meet" version="1.0"><defs><g/><clipPath id="f4c3b53af6"><path d="M 0.5 0 L 539.5 0 L 539.5 539 L 0.5 539 Z M 0.5 0 " clip-rule="nonzero"/></clipPath><clipPath id="08ab77bc6c"><path d="M 79.613281 79.113281 L 460.386719 79.113281 L 460.386719 459.886719 L 79.613281 459.886719 Z M 79.613281 79.113281 " clip-rule="nonzero"/></clipPath></defs><g clip-path="url(#f4c3b53af6)"><path fill="#ffffff" d="M 0.5 0 L 539.5 0 L 539.5 539 L 0.5 539 Z M 0.5 0 " fill-opacity="1" fill-rule="nonzero"/><path fill="#e0ca27" d="M 0.5 0 L 539.5 0 L 539.5 539 L 0.5 539 Z M 0.5 0 " fill-opacity="1" fill-rule="nonzero"/></g><g clip-path="url(#08ab77bc6c)"><path fill="#e0ca27" d="M 79.613281 79.113281 L 460.386719 79.113281 L 460.386719 459.886719 L 79.613281 459.886719 Z M 79.613281 79.113281 " fill-opacity="1" fill-rule="nonzero"/></g><g fill="#000000" fill-opacity="1"><g transform="translate(197.440005, 149.188089)"><g><path d="M 17.109375 -5.828125 C 18.097656 -5.828125 19.050781 -5.972656 19.96875 -6.265625 C 20.894531 -6.566406 21.578125 -6.859375 22.015625 -7.140625 L 22.671875 -7.578125 L 25.421875 -2.09375 C 25.328125 -2.019531 25.195312 -1.925781 25.03125 -1.8125 C 24.875 -1.695312 24.503906 -1.484375 23.921875 -1.171875 C 23.335938 -0.867188 22.710938 -0.601562 22.046875 -0.375 C 21.390625 -0.144531 20.519531 0.0546875 19.4375 0.234375 C 18.363281 0.421875 17.257812 0.515625 16.125 0.515625 C 13.488281 0.515625 10.992188 -0.128906 8.640625 -1.421875 C 6.285156 -2.710938 4.382812 -4.488281 2.9375 -6.75 C 1.5 -9.019531 0.78125 -11.46875 0.78125 -14.09375 C 0.78125 -16.082031 1.203125 -17.988281 2.046875 -19.8125 C 2.898438 -21.644531 4.03125 -23.210938 5.4375 -24.515625 C 6.84375 -25.828125 8.484375 -26.867188 10.359375 -27.640625 C 12.234375 -28.421875 14.15625 -28.8125 16.125 -28.8125 C 17.945312 -28.8125 19.628906 -28.59375 21.171875 -28.15625 C 22.722656 -27.71875 23.816406 -27.285156 24.453125 -26.859375 L 25.421875 -26.203125 L 22.671875 -20.71875 C 22.515625 -20.851562 22.273438 -21.015625 21.953125 -21.203125 C 21.628906 -21.398438 20.988281 -21.660156 20.03125 -21.984375 C 19.070312 -22.304688 18.097656 -22.46875 17.109375 -22.46875 C 15.554688 -22.46875 14.160156 -22.210938 12.921875 -21.703125 C 11.691406 -21.203125 10.71875 -20.539062 10 -19.71875 C 9.28125 -18.894531 8.726562 -18.007812 8.34375 -17.0625 C 7.96875 -16.113281 7.78125 -15.148438 7.78125 -14.171875 C 7.78125 -12.015625 8.585938 -10.082031 10.203125 -8.375 C 11.816406 -6.675781 14.117188 -5.828125 17.109375 -5.828125 Z M 17.109375 -5.828125 "/></g></g></g><g fill="#000000" fill-opacity="1"><g transform="translate(223.259896, 149.188089)"><g><path d="M 2.0625 0 L 2.0625 -29.5 L 8.125 -29.5 L 8.125 -15.75 L 8.203125 -15.75 C 9.773438 -17.320312 11.453125 -18.109375 13.234375 -18.109375 C 14.109375 -18.109375 14.972656 -17.992188 15.828125 -17.765625 C 16.679688 -17.535156 17.503906 -17.179688 18.296875 -16.703125 C 19.085938 -16.222656 19.726562 -15.539062 20.21875 -14.65625 C 20.707031 -13.78125 20.953125 -12.757812 20.953125 -11.59375 L 20.953125 0 L 14.890625 0 L 14.890625 -9.953125 C 14.890625 -10.859375 14.597656 -11.65625 14.015625 -12.34375 C 13.429688 -13.03125 12.671875 -13.375 11.734375 -13.375 C 10.816406 -13.375 9.984375 -13.019531 9.234375 -12.3125 C 8.492188 -11.601562 8.125 -10.816406 8.125 -9.953125 L 8.125 0 Z M 2.0625 0 "/></g></g></g><g fill="#000000" fill-opacity="1"><g transform="translate(245.925153, 149.188089)"><g><path d="M 3.25 -2.171875 C 1.601562 -3.972656 0.78125 -6.175781 0.78125 -8.78125 C 0.78125 -11.382812 1.601562 -13.585938 3.25 -15.390625 C 4.90625 -17.203125 7 -18.109375 9.53125 -18.109375 C 11.863281 -18.109375 13.785156 -17.375 15.296875 -15.90625 L 15.296875 -17.59375 L 21.359375 -17.59375 L 21.359375 0 L 15.359375 0 L 15.359375 -1.984375 L 15.296875 -1.984375 C 13.785156 -0.316406 11.863281 0.515625 9.53125 0.515625 C 7 0.515625 4.90625 -0.378906 3.25 -2.171875 Z M 8.421875 -11.765625 C 7.628906 -10.984375 7.234375 -9.988281 7.234375 -8.78125 C 7.234375 -7.570312 7.609375 -6.582031 8.359375 -5.8125 C 9.117188 -5.050781 10.117188 -4.671875 11.359375 -4.671875 C 12.546875 -4.671875 13.519531 -5.054688 14.28125 -5.828125 C 15.050781 -6.609375 15.4375 -7.59375 15.4375 -8.78125 C 15.4375 -9.988281 15.039062 -10.984375 14.25 -11.765625 C 13.457031 -12.546875 12.492188 -12.9375 11.359375 -12.9375 C 10.191406 -12.9375 9.210938 -12.546875 8.421875 -11.765625 Z M 8.421875 -11.765625 "/></g></g></g><g fill="#000000" fill-opacity="1"><g transform="translate(269.34478, 149.188089)"><g><path d="M 3.09375 -17.59375 L 3.09375 -24.140625 L 9.15625 -24.140625 L 9.15625 -17.59375 L 12.859375 -17.59375 L 12.859375 -12.96875 L 9.15625 -12.96875 L 9.15625 -7.375 C 9.15625 -5.75 9.613281 -4.9375 10.53125 -4.9375 C 10.757812 -4.9375 11 -4.984375 11.25 -5.078125 C 11.5 -5.171875 11.691406 -5.257812 11.828125 -5.34375 L 12.03125 -5.484375 L 13.546875 -0.578125 C 12.242188 0.148438 10.757812 0.515625 9.09375 0.515625 C 7.945312 0.515625 6.960938 0.316406 6.140625 -0.078125 C 5.316406 -0.484375 4.691406 -1.019531 4.265625 -1.6875 C 3.847656 -2.363281 3.546875 -3.070312 3.359375 -3.8125 C 3.179688 -4.5625 3.09375 -5.359375 3.09375 -6.203125 L 3.09375 -12.96875 L 0.546875 -12.96875 L 0.546875 -17.59375 Z M 3.09375 -17.59375 "/></g></g></g><g fill="#000000" fill-opacity="1"><g transform="translate(282.889062, 149.188089)"><g><path d="M 20.171875 -15.390625 C 21.816406 -13.585938 22.640625 -11.382812 22.640625 -8.78125 C 22.640625 -6.175781 21.816406 -3.972656 20.171875 -2.171875 C 18.523438 -0.378906 16.429688 0.515625 13.890625 0.515625 C 11.554688 0.515625 9.632812 -0.316406 8.125 -1.984375 L 8.0625 -1.984375 L 8.0625 0 L 2.0625 0 L 2.0625 -29.5 L 8.125 -29.5 L 8.125 -15.90625 C 9.632812 -17.375 11.554688 -18.109375 13.890625 -18.109375 C 16.429688 -18.109375 18.523438 -17.203125 20.171875 -15.390625 Z M 15.046875 -5.8125 C 15.804688 -6.582031 16.1875 -7.570312 16.1875 -8.78125 C 16.1875 -9.988281 15.789062 -10.984375 15 -11.765625 C 14.21875 -12.546875 13.242188 -12.9375 12.078125 -12.9375 C 10.929688 -12.9375 9.960938 -12.546875 9.171875 -11.765625 C 8.378906 -10.984375 7.984375 -9.988281 7.984375 -8.78125 C 7.984375 -7.59375 8.367188 -6.609375 9.140625 -5.828125 C 9.910156 -5.054688 10.890625 -4.671875 12.078125 -4.671875 C 13.304688 -4.671875 14.296875 -5.050781 15.046875 -5.8125 Z M 15.046875 -5.8125 "/></g></g></g><g fill="#000000" fill-opacity="1"><g transform="translate(306.308688, 149.188089)"><g><path d="M 3.71875 -2.09375 C 1.757812 -3.832031 0.78125 -6.0625 0.78125 -8.78125 C 0.78125 -11.5 1.796875 -13.734375 3.828125 -15.484375 C 5.867188 -17.234375 8.390625 -18.109375 11.390625 -18.109375 C 14.335938 -18.109375 16.820312 -17.226562 18.84375 -15.46875 C 20.863281 -13.707031 21.875 -11.476562 21.875 -8.78125 C 21.875 -6.082031 20.882812 -3.859375 18.90625 -2.109375 C 16.9375 -0.359375 14.429688 0.515625 11.390625 0.515625 C 8.234375 0.515625 5.675781 -0.351562 3.71875 -2.09375 Z M 8.421875 -11.765625 C 7.628906 -10.984375 7.234375 -9.988281 7.234375 -8.78125 C 7.234375 -7.570312 7.609375 -6.582031 8.359375 -5.8125 C 9.117188 -5.050781 10.117188 -4.671875 11.359375 -4.671875 C 12.546875 -4.671875 13.519531 -5.054688 14.28125 -5.828125 C 15.050781 -6.609375 15.4375 -7.59375 15.4375 -8.78125 C 15.4375 -9.988281 15.039062 -10.984375 14.25 -11.765625 C 13.457031 -12.546875 12.492188 -12.9375 11.359375 -12.9375 C 10.191406 -12.9375 9.210938 -12.546875 8.421875 -11.765625 Z M 8.421875 -11.765625 "/></g></g></g><g fill="#000000" fill-opacity="1"><g transform="translate(328.973945, 149.188089)"><g><path d="M 3.09375 -17.59375 L 3.09375 -24.140625 L 9.15625 -24.140625 L 9.15625 -17.59375 L 12.859375 -17.59375 L 12.859375 -12.96875 L 9.15625 -12.96875 L 9.15625 -7.375 C 9.15625 -5.75 9.613281 -4.9375 10.53125 -4.9375 C 10.757812 -4.9375 11 -4.984375 11.25 -5.078125 C 11.5 -5.171875 11.691406 -5.257812 11.828125 -5.34375 L 12.03125 -5.484375 L 13.546875 -0.578125 C 12.242188 0.148438 10.757812 0.515625 9.09375 0.515625 C 7.945312 0.515625 6.960938 0.316406 6.140625 -0.078125 C 5.316406 -0.484375 4.691406 -1.019531 4.265625 -1.6875 C 3.847656 -2.363281 3.546875 -3.070312 3.359375 -3.8125 C 3.179688 -4.5625 3.09375 -5.359375 3.09375 -6.203125 L 3.09375 -12.96875 L 0.546875 -12.96875 L 0.546875 -17.59375 Z M 3.09375 -17.59375 "/></g></g></g><path fill="#caddff" d="M 215.3125 221.222656 C 236.339844 200.03125 230.320312 186.75 244.707031 176.9375 C 266.84375 161.84375 308.164062 174.832031 332.539062 195.59375 C 362.394531 221.027344 377.796875 267.464844 360.25 309.472656 C 341.566406 354.207031 292.398438 377.433594 248.523438 370.433594 C 209.34375 364.183594 170.832031 333.265625 166.972656 296.183594 C 166.554688 292.164062 164.707031 270.4375 177.660156 251.707031 C 188.363281 236.222656 198.644531 238.019531 215.3125 221.222656 " fill-opacity="1" fill-rule="nonzero"/><path fill="#99b9ff" d="M 198.304688 198.445312 C 212.253906 195.875 225.132812 202.347656 227.070312 212.902344 C 227.941406 217.625 226.46875 222.363281 223.332031 226.390625 L 229.605469 236.050781 L 216.425781 232.464844 C 213.226562 234.433594 209.464844 235.902344 205.332031 236.664062 C 191.382812 239.234375 178.507812 232.761719 176.566406 222.207031 C 174.625 211.65625 184.359375 201.015625 198.304688 198.445312 " fill-opacity="1" fill-rule="nonzero"/><path fill="#000000" d="M 188.257812 200.351562 C 188.140625 200.351562 188.023438 200.296875 187.953125 200.191406 C 187.839844 200.023438 187.886719 199.796875 188.054688 199.683594 C 188.363281 199.476562 188.679688 199.273438 188.996094 199.074219 C 189.167969 198.972656 189.390625 199.023438 189.496094 199.195312 C 189.601562 199.367188 189.550781 199.589844 189.378906 199.695312 C 189.070312 199.886719 188.761719 200.085938 188.460938 200.289062 C 188.398438 200.332031 188.328125 200.351562 188.257812 200.351562 " fill-opacity="1" fill-rule="nonzero"/><path fill="#000000" d="M 201.308594 234.289062 C 189.707031 234.289062 179.9375 228.132812 178.253906 218.976562 C 177.128906 212.851562 179.765625 206.53125 185.488281 201.632812 C 185.640625 201.5 185.871094 201.519531 186.003906 201.671875 C 186.132812 201.824219 186.113281 202.054688 185.960938 202.1875 C 180.441406 206.910156 177.890625 212.980469 178.96875 218.84375 C 180.871094 229.183594 193.585938 235.539062 207.3125 233.007812 C 208.339844 232.816406 209.363281 232.578125 210.359375 232.296875 C 210.550781 232.242188 210.753906 232.355469 210.808594 232.550781 C 210.863281 232.742188 210.75 232.945312 210.554688 233 C 209.539062 233.285156 208.492188 233.53125 207.441406 233.722656 C 205.367188 234.105469 203.308594 234.289062 201.308594 234.289062 " fill-opacity="1" fill-rule="nonzero"/><path fill="#000000" d="M 231.652344 233.117188 C 231.621094 233.117188 231.589844 233.113281 231.558594 233.101562 L 218.527344 229.558594 C 217.582031 230.132812 216.585938 230.664062 215.5625 231.140625 C 215.382812 231.226562 215.164062 231.148438 215.082031 230.96875 C 214.996094 230.785156 215.074219 230.566406 215.257812 230.484375 C 216.300781 229.996094 217.320312 229.445312 218.28125 228.855469 C 218.367188 228.800781 218.472656 228.785156 218.570312 228.8125 L 230.828125 232.148438 L 225.070312 223.289062 C 224.988281 223.15625 224.992188 222.984375 225.089844 222.863281 C 228.269531 218.78125 229.574219 214.097656 228.757812 209.667969 C 227.84375 204.675781 224.402344 200.453125 219.074219 197.777344 C 213.710938 195.082031 207.085938 194.273438 200.417969 195.503906 C 198.84375 195.792969 197.292969 196.195312 195.800781 196.695312 C 195.613281 196.761719 195.40625 196.660156 195.339844 196.46875 C 195.277344 196.277344 195.378906 196.070312 195.570312 196.003906 C 197.09375 195.492188 198.679688 195.082031 200.285156 194.785156 C 207.109375 193.53125 213.898438 194.359375 219.402344 197.125 C 224.9375 199.910156 228.515625 204.316406 229.476562 209.535156 C 230.3125 214.097656 229.015625 218.90625 225.824219 223.105469 L 231.957031 232.550781 C 232.039062 232.679688 232.035156 232.84375 231.945312 232.964844 C 231.878906 233.0625 231.765625 233.117188 231.652344 233.117188 " fill-opacity="1" fill-rule="nonzero"/><path fill="#5479f7" d="M 204.5 212.539062 C 204.296875 212.539062 204.136719 212.375 204.132812 212.175781 C 204.132812 211.972656 204.296875 211.808594 204.496094 211.808594 L 222.042969 211.765625 C 222.242188 211.765625 222.40625 211.929688 222.40625 212.132812 C 222.40625 212.332031 222.246094 212.496094 222.042969 212.496094 L 204.5 212.539062 " fill-opacity="1" fill-rule="nonzero"/><path fill="#5479f7" d="M 184.386719 212.03125 C 184.183594 212.03125 184.023438 211.871094 184.019531 211.667969 C 184.019531 211.46875 184.183594 211.304688 184.382812 211.300781 L 201.144531 211.210938 C 201.148438 211.210938 201.148438 211.210938 201.148438 211.210938 C 201.347656 211.210938 201.511719 211.371094 201.511719 211.570312 C 201.515625 211.773438 201.351562 211.9375 201.152344 211.9375 L 184.386719 212.03125 " fill-opacity="1" fill-rule="nonzero"/><path fill="#5479f7" d="M 221.285156 217.105469 C 221.28125 217.105469 221.28125 217.105469 221.28125 217.105469 L 198.359375 216.824219 C 198.15625 216.820312 197.996094 216.65625 197.996094 216.453125 C 198 216.253906 198.164062 216.09375 198.363281 216.09375 C 198.363281 216.09375 198.363281 216.09375 198.367188 216.09375 L 221.289062 216.378906 C 221.488281 216.378906 221.652344 216.546875 221.648438 216.746094 C 221.644531 216.945312 221.484375 217.105469 221.285156 217.105469 " fill-opacity="1" fill-rule="nonzero"/><path fill="#5479f7" d="M 193.917969 216.769531 C 193.917969 216.769531 193.914062 216.769531 193.914062 216.769531 L 183.621094 216.640625 C 183.421875 216.640625 183.261719 216.476562 183.261719 216.273438 C 183.265625 216.074219 183.425781 215.914062 183.625 215.914062 C 183.628906 215.914062 183.628906 215.914062 183.632812 215.914062 L 193.921875 216.039062 C 194.125 216.042969 194.285156 216.207031 194.28125 216.410156 C 194.28125 216.609375 194.117188 216.769531 193.917969 216.769531 " fill-opacity="1" fill-rule="nonzero"/><path fill="#5479f7" d="M 221.9375 221.003906 L 213.535156 220.953125 C 213.335938 220.953125 213.175781 220.789062 213.175781 220.585938 C 213.175781 220.386719 213.339844 220.222656 213.539062 220.222656 C 213.539062 220.222656 213.539062 220.222656 213.542969 220.222656 L 221.941406 220.273438 C 222.140625 220.277344 222.304688 220.441406 222.300781 220.640625 C 222.300781 220.84375 222.136719 221.003906 221.9375 221.003906 " fill-opacity="1" fill-rule="nonzero"/><path fill="#5479f7" d="M 211.539062 220.984375 C 211.535156 220.984375 211.53125 220.984375 211.53125 220.984375 L 184.273438 220.539062 C 184.074219 220.535156 183.914062 220.371094 183.917969 220.167969 C 183.917969 219.964844 184.082031 219.804688 184.285156 219.808594 L 211.542969 220.253906 C 211.746094 220.257812 211.90625 220.425781 211.902344 220.625 C 211.898438 220.824219 211.734375 220.984375 211.539062 220.984375 " fill-opacity="1" fill-rule="nonzero"/><path fill="#5479f7" d="M 337.0625 361.109375 L 246.753906 361.109375 C 242.859375 361.109375 240.101562 357.964844 240.59375 354.089844 L 262.832031 178.519531 C 263.324219 174.640625 266.875 171.5 270.765625 171.5 L 356.546875 170.496094 C 366.390625 170.496094 367.726562 174.640625 367.238281 178.519531 L 345 354.089844 C 344.507812 357.964844 340.953125 361.109375 337.0625 361.109375 " fill-opacity="1" fill-rule="nonzero"/><path fill="#ffffff" d="M 331.628906 361.109375 L 241.316406 361.109375 C 237.425781 361.109375 234.667969 357.949219 235.160156 354.050781 L 257.398438 177.585938 C 257.890625 173.691406 261.441406 170.53125 265.332031 170.53125 L 355.644531 170.53125 C 359.535156 170.53125 362.292969 173.691406 361.800781 177.585938 L 339.566406 354.050781 C 339.074219 357.949219 335.519531 361.109375 331.628906 361.109375 " fill-opacity="1" fill-rule="nonzero"/><path fill="#caddff" d="M 240.308594 354.296875 L 261.539062 185.800781 C 261.652344 184.902344 262.472656 184.171875 263.371094 184.171875 L 354.167969 184.171875 C 355.066406 184.171875 355.703125 184.902344 355.589844 185.800781 L 334.355469 354.296875 C 334.246094 355.195312 333.421875 355.921875 332.523438 355.921875 L 241.726562 355.921875 C 240.828125 355.921875 240.191406 355.195312 240.308594 354.296875 " fill-opacity="1" fill-rule="nonzero"/><path fill="#caddff" d="M 309.359375 179.503906 C 307.902344 179.503906 306.867188 178.320312 307.050781 176.859375 C 307.234375 175.402344 308.566406 174.21875 310.023438 174.21875 C 311.480469 174.21875 312.515625 175.402344 312.332031 176.859375 C 312.148438 178.320312 310.816406 179.503906 309.359375 179.503906 " fill-opacity="1" fill-rule="nonzero"/><path fill="#000000" d="M 331.628906 361.472656 L 257.085938 361.472656 C 256.882812 361.472656 256.722656 361.308594 256.722656 361.109375 C 256.722656 360.90625 256.882812 360.742188 257.085938 360.742188 L 331.628906 360.742188 C 335.335938 360.742188 338.734375 357.722656 339.203125 354.007812 L 361.441406 177.542969 C 361.664062 175.753906 361.179688 174.074219 360.074219 172.820312 C 358.984375 171.578125 357.410156 170.894531 355.644531 170.894531 L 265.332031 170.894531 C 261.625 170.894531 258.226562 173.917969 257.757812 177.632812 L 243.125 293.75 C 243.101562 293.949219 242.921875 294.089844 242.71875 294.066406 C 242.519531 294.039062 242.378906 293.855469 242.402344 293.65625 L 257.035156 177.542969 C 257.546875 173.476562 261.269531 170.167969 265.332031 170.167969 L 355.644531 170.167969 C 357.621094 170.167969 359.390625 170.9375 360.621094 172.335938 C 361.867188 173.753906 362.414062 175.632812 362.164062 177.632812 L 339.925781 354.097656 C 339.414062 358.164062 335.691406 361.472656 331.628906 361.472656 " fill-opacity="1" fill-rule="nonzero"/><path fill="#000000" d="M 332.523438 356.289062 L 302.96875 356.289062 C 302.765625 356.289062 302.601562 356.125 302.601562 355.921875 C 302.601562 355.722656 302.765625 355.558594 302.96875 355.558594 L 332.523438 355.558594 C 333.246094 355.558594 333.90625 354.972656 333.996094 354.25 L 355.230469 185.753906 C 355.273438 185.421875 355.183594 185.113281 354.980469 184.886719 C 354.785156 184.660156 354.496094 184.535156 354.167969 184.535156 L 263.371094 184.535156 C 262.652344 184.535156 261.992188 185.125 261.902344 185.847656 L 247.207031 302.460938 C 247.179688 302.660156 246.996094 302.800781 246.796875 302.777344 C 246.601562 302.753906 246.457031 302.570312 246.484375 302.371094 L 261.179688 185.753906 C 261.3125 184.679688 262.296875 183.808594 263.371094 183.808594 L 354.167969 183.808594 C 354.707031 183.808594 355.191406 184.019531 355.527344 184.402344 C 355.871094 184.792969 356.019531 185.300781 355.953125 185.847656 L 334.71875 354.339844 C 334.585938 355.414062 333.601562 356.289062 332.523438 356.289062 " fill-opacity="1" fill-rule="nonzero"/><path fill="#000000" d="M 252.082031 285.394531 C 252.082031 285.378906 252.082031 285.363281 252.082031 285.347656 C 252.171875 280.570312 255.125 275.703125 260.855469 270.878906 C 264.875 267.496094 268.828125 265.367188 268.992188 265.277344 C 270.320312 264.570312 271.96875 265.070312 272.679688 266.398438 C 273.386719 267.726562 272.886719 269.378906 271.558594 270.085938 C 267.699219 272.164062 257.648438 278.964844 257.523438 285.453125 C 257.523438 285.464844 257.523438 285.472656 257.523438 285.484375 C 257.488281 287.542969 258.097656 289.144531 259.382812 290.378906 C 262.460938 293.335938 268.699219 293.652344 270.84375 293.523438 C 272.34375 293.433594 273.632812 294.578125 273.722656 296.082031 C 273.8125 297.582031 272.667969 298.875 271.167969 298.964844 C 270.753906 298.992188 261.019531 299.507812 255.613281 294.3125 C 253.210938 292 252.019531 289 252.082031 285.394531 " fill-opacity="1" fill-rule="nonzero"/><path fill="#5479f7" d="M 271.378906 304.851562 L 271.640625 288.710938 C 271.667969 287.207031 272.90625 286.007812 274.410156 286.03125 C 275.910156 286.054688 277.109375 287.296875 277.085938 288.800781 L 276.820312 304.941406 C 276.796875 306.449219 275.558594 307.648438 274.054688 307.625 C 272.550781 307.597656 271.351562 306.359375 271.378906 304.851562 " fill-opacity="1" fill-rule="nonzero"/><path fill="#5479f7" d="M 249.394531 236.675781 L 255.082031 236.675781 C 255.308594 236.675781 255.492188 236.492188 255.492188 236.265625 L 255.492188 219.242188 C 255.492188 219.015625 255.308594 218.832031 255.082031 218.832031 L 249.394531 218.832031 C 248.199219 218.832031 247.230469 219.800781 247.230469 220.996094 L 247.230469 234.507812 C 247.230469 235.707031 248.199219 236.675781 249.394531 236.675781 " fill-opacity="1" fill-rule="nonzero"/><path fill="#ffffff" d="M 333.925781 236.675781 L 328.171875 236.675781 L 328.171875 220.554688 L 333.925781 220.554688 C 335.3125 220.554688 336.433594 221.679688 336.433594 223.066406 L 336.433594 234.164062 C 336.433594 235.550781 335.3125 236.675781 333.925781 236.675781 " fill-opacity="1" fill-rule="nonzero"/><path fill="#000000" d="M 328.539062 236.308594 L 329.335938 236.308594 C 333.046875 236.308594 336.066406 233.285156 336.066406 229.566406 L 336.066406 227.664062 C 336.066406 223.945312 333.046875 220.921875 329.335938 220.921875 L 328.539062 220.921875 Z M 329.335938 237.039062 L 328.171875 237.039062 C 327.972656 237.039062 327.808594 236.875 327.808594 236.671875 L 327.808594 220.554688 C 327.808594 220.355469 327.972656 220.191406 328.171875 220.191406 L 329.335938 220.191406 C 333.449219 220.191406 336.796875 223.542969 336.796875 227.664062 L 336.796875 229.566406 C 336.796875 233.6875 333.449219 237.039062 329.335938 237.039062 " fill-opacity="1" fill-rule="nonzero"/><path fill="#ffffff" d="M 330.777344 227.949219 C 330.777344 210.628906 313.339844 192.714844 291.832031 192.714844 C 270.324219 192.714844 252.890625 210.628906 252.890625 227.949219 C 252.890625 245.269531 270.324219 255.433594 291.832031 255.433594 C 313.339844 255.433594 330.777344 245.269531 330.777344 227.949219 " fill-opacity="1" fill-rule="nonzero"/><path fill="#000000" d="M 291.832031 193.078125 C 269.75 193.078125 253.253906 211.488281 253.253906 227.949219 C 253.253906 236.078125 257.140625 242.972656 264.496094 247.886719 C 271.4375 252.519531 281.144531 255.070312 291.832031 255.070312 C 302.519531 255.070312 312.226562 252.519531 319.167969 247.886719 C 326.523438 242.972656 330.410156 236.078125 330.410156 227.949219 C 330.410156 211.488281 313.914062 193.078125 291.832031 193.078125 Z M 291.832031 255.800781 C 281.003906 255.800781 271.148438 253.203125 264.09375 248.492188 C 256.523438 243.4375 252.523438 236.332031 252.523438 227.949219 C 252.523438 219.359375 256.722656 210.472656 264.046875 203.570312 C 271.722656 196.335938 281.589844 192.347656 291.832031 192.347656 C 302.074219 192.347656 311.945312 196.335938 319.617188 203.570312 C 326.941406 210.472656 331.136719 219.359375 331.136719 227.949219 C 331.136719 236.332031 327.140625 243.4375 319.570312 248.492188 C 312.515625 253.203125 302.660156 255.800781 291.832031 255.800781 " fill-opacity="1" fill-rule="nonzero"/><path fill="#ffffff" d="M 282.078125 260.636719 L 301.585938 260.636719 C 310.136719 260.636719 317.070312 267.578125 317.070312 276.140625 C 317.070312 281.796875 316.519531 287.441406 315.425781 292.988281 L 312.621094 307.214844 C 310.660156 317.152344 301.953125 324.320312 291.832031 324.320312 C 281.710938 324.320312 273.007812 317.152344 271.046875 307.214844 L 268.242188 292.988281 C 267.148438 287.441406 266.59375 281.796875 266.59375 276.140625 C 266.59375 267.578125 273.527344 260.636719 282.078125 260.636719 " fill-opacity="1" fill-rule="nonzero"/><path fill="#000000" d="M 282.078125 261.003906 C 273.742188 261.003906 266.960938 267.792969 266.960938 276.140625 C 266.960938 281.761719 267.511719 287.40625 268.597656 292.917969 L 271.402344 307.140625 C 273.324219 316.882812 281.914062 323.953125 291.832031 323.953125 C 301.75 323.953125 310.339844 316.882812 312.261719 307.140625 L 315.066406 292.917969 C 316.15625 287.40625 316.707031 281.761719 316.707031 276.140625 C 316.707031 267.792969 309.925781 261.003906 301.585938 261.003906 Z M 291.832031 324.683594 C 281.570312 324.683594 272.675781 317.367188 270.6875 307.28125 L 267.882812 293.058594 C 266.789062 287.5 266.230469 281.808594 266.230469 276.140625 C 266.230469 267.390625 273.339844 260.273438 282.078125 260.273438 L 301.585938 260.273438 C 310.324219 260.273438 317.433594 267.390625 317.433594 276.140625 C 317.433594 281.808594 316.878906 287.5 315.78125 293.058594 L 312.976562 307.28125 C 310.988281 317.367188 302.097656 324.683594 291.832031 324.683594 " fill-opacity="1" fill-rule="nonzero"/><path fill="#caddff" d="M 290.578125 294.984375 L 293.089844 294.984375 C 298.257812 294.984375 302.453125 290.789062 302.453125 285.609375 L 302.453125 260.636719 L 281.214844 260.636719 L 281.214844 285.609375 C 281.214844 290.789062 285.40625 294.984375 290.578125 294.984375 " fill-opacity="1" fill-rule="nonzero"/><path fill="#000000" d="M 302.453125 261.003906 L 281.214844 261.003906 C 281.011719 261.003906 280.851562 260.839844 280.851562 260.636719 C 280.851562 260.4375 281.011719 260.273438 281.214844 260.273438 L 302.453125 260.273438 C 302.652344 260.273438 302.816406 260.4375 302.816406 260.636719 C 302.816406 260.839844 302.652344 261.003906 302.453125 261.003906 " fill-opacity="1" fill-rule="nonzero"/><path fill="#000000" d="M 265.652344 222.75 L 303.152344 222.75 C 307.046875 222.75 310.207031 226.160156 310.207031 230.363281 L 310.207031 235.328125 C 310.207031 238.535156 308.496094 241.929688 305.550781 242.484375 C 295.15625 244.441406 273.644531 244.441406 263.253906 242.484375 C 260.304688 241.929688 258.597656 238.535156 258.597656 235.328125 L 258.597656 230.363281 C 258.597656 226.160156 261.753906 222.75 265.652344 222.75 " fill-opacity="1" fill-rule="nonzero"/><path fill="#5479f7" d="M 293.214844 232.742188 C 293.214844 234.152344 294.273438 235.292969 295.578125 235.292969 C 296.882812 235.292969 297.941406 234.152344 297.941406 232.742188 C 297.941406 231.335938 296.882812 230.195312 295.578125 230.195312 C 294.273438 230.195312 293.214844 231.335938 293.214844 232.742188 " fill-opacity="1" fill-rule="nonzero"/><path fill="#5479f7" d="M 268.070312 232.742188 C 268.070312 234.152344 269.128906 235.292969 270.433594 235.292969 C 271.738281 235.292969 272.796875 234.152344 272.796875 232.742188 C 272.796875 231.335938 271.738281 230.195312 270.433594 230.195312 C 269.128906 230.195312 268.070312 231.335938 268.070312 232.742188 " fill-opacity="1" fill-rule="nonzero"/><path fill="#5479f7" d="M 307.304688 247.734375 C 307.152344 247.734375 307.011719 247.636719 306.960938 247.484375 C 306.898438 247.292969 307 247.085938 307.191406 247.023438 L 319.167969 243.078125 C 324.625 241.277344 327.957031 235.84375 327.085938 230.15625 L 326.222656 224.515625 C 326.191406 224.316406 326.328125 224.132812 326.527344 224.101562 C 326.730469 224.070312 326.914062 224.207031 326.941406 224.40625 L 327.804688 230.042969 C 328.730469 236.085938 325.191406 241.859375 319.394531 243.769531 L 307.417969 247.714844 C 307.382812 247.730469 307.34375 247.734375 307.304688 247.734375 " fill-opacity="1" fill-rule="nonzero"/><path fill="#5479f7" d="M 332.21875 222.089844 C 332.058594 222.089844 331.910156 221.984375 331.867188 221.820312 C 331.847656 221.746094 329.839844 214.304688 324.5625 207.085938 C 319.714844 200.453125 311.027344 192.644531 297.152344 193.140625 C 296.957031 193.148438 296.78125 192.992188 296.777344 192.789062 C 296.769531 192.589844 296.925781 192.421875 297.128906 192.414062 C 303.390625 192.191406 309.164062 193.59375 314.269531 196.578125 C 318.351562 198.964844 322.015625 202.363281 325.164062 206.675781 C 330.515625 214.003906 332.550781 221.558594 332.570312 221.632812 C 332.621094 221.828125 332.507812 222.027344 332.3125 222.078125 C 332.28125 222.085938 332.25 222.089844 332.21875 222.089844 " fill-opacity="1" fill-rule="nonzero"/><path fill="#99b9ff" d="M 322.007812 230.511719 C 321.363281 225.433594 324.613281 220.839844 329.261719 220.25 C 329.773438 220.1875 331.660156 220.136719 332.160156 220.171875 C 336.191406 220.445312 338.269531 223.855469 338.84375 228.378906 C 339.457031 233.25 337.601562 237.804688 333.25 238.671875 C 333.070312 238.707031 331.78125 238.8125 331.59375 238.8125 C 326.5 238.828125 322.648438 235.585938 322.007812 230.511719 " fill-opacity="1" fill-rule="nonzero"/><path fill="#5479f7" d="M 324.015625 230.34375 C 323.476562 225.257812 326.8125 220.730469 331.472656 220.230469 C 336.132812 219.734375 340.347656 223.453125 340.890625 228.542969 C 341.433594 233.632812 338.09375 238.160156 333.4375 238.65625 C 328.777344 239.15625 324.558594 235.433594 324.015625 230.34375 " fill-opacity="1" fill-rule="nonzero"/><path fill="#5479f7" d="M 310.007812 249.148438 L 300.679688 250.035156 C 300.324219 250.066406 300.003906 249.804688 299.96875 249.445312 L 299.699219 246.574219 C 299.664062 246.21875 299.929688 245.898438 300.285156 245.863281 L 309.609375 244.976562 C 309.96875 244.941406 310.285156 245.207031 310.320312 245.5625 L 310.59375 248.4375 C 310.625 248.792969 310.363281 249.113281 310.007812 249.148438 " fill-opacity="1" fill-rule="nonzero"/><path fill="#99b9ff" d="M 271.769531 315.6875 L 308.082031 315.6875 L 293.976562 277.5 L 257.664062 277.5 L 271.769531 315.6875 " fill-opacity="1" fill-rule="nonzero"/><path fill="#000000" d="M 272.023438 315.324219 L 307.554688 315.324219 L 293.722656 277.863281 L 258.1875 277.863281 Z M 308.082031 316.054688 L 271.769531 316.054688 C 271.617188 316.054688 271.480469 315.957031 271.429688 315.816406 L 257.324219 277.625 C 257.285156 277.515625 257.296875 277.386719 257.367188 277.289062 C 257.433594 277.191406 257.546875 277.132812 257.664062 277.132812 L 293.976562 277.132812 C 294.128906 277.132812 294.265625 277.230469 294.316406 277.371094 L 308.421875 315.5625 C 308.460938 315.671875 308.449219 315.800781 308.378906 315.898438 C 308.3125 315.996094 308.199219 316.054688 308.082031 316.054688 " fill-opacity="1" fill-rule="nonzero"/><path fill="#000000" d="M 316.742188 306.207031 C 322.074219 306.207031 329.292969 305.445312 333.917969 301.894531 C 336.582031 299.847656 338.140625 297.144531 338.546875 293.863281 C 340.367188 279.125 322.605469 270.691406 321.847656 270.339844 C 320.484375 269.707031 318.867188 270.296875 318.234375 271.664062 C 317.601562 273.027344 318.191406 274.648438 319.550781 275.28125 C 319.703125 275.351562 334.476562 282.402344 333.144531 293.195312 C 332.921875 294.996094 332.089844 296.429688 330.605469 297.566406 C 325.519531 301.472656 312.105469 301.375 308.261719 300.832031 C 306.773438 300.625 306.042969 301.609375 305.835938 303.101562 C 305.625 304.59375 306.765625 306.015625 308.261719 306.179688 C 310.417969 306.417969 312.945312 306.207031 316.742188 306.207031 " fill-opacity="1" fill-rule="nonzero"/><path fill="#000000" d="M 296.648438 309.914062 L 301.878906 309.914062 C 304.734375 309.914062 307.101562 307.769531 307.386719 304.925781 L 307.570312 303.101562 C 307.722656 301.546875 307.210938 299.988281 306.164062 298.828125 C 305.117188 297.671875 303.621094 297.007812 302.058594 297.007812 L 293.71875 297.007812 C 292.21875 297.007812 291 298.226562 291 299.734375 C 291 301.238281 292.21875 302.457031 293.71875 302.457031 L 302.058594 302.457031 C 302.074219 302.457031 302.101562 302.457031 302.128906 302.488281 C 302.15625 302.519531 302.152344 302.542969 302.152344 302.558594 L 301.96875 304.382812 C 301.964844 304.429688 301.925781 304.464844 301.878906 304.464844 L 296.648438 304.464844 C 295.148438 304.464844 293.925781 305.683594 293.925781 307.191406 C 293.925781 308.695312 295.148438 309.914062 296.648438 309.914062 " fill-opacity="1" fill-rule="nonzero"/><path fill="#99b9ff" d="M 237.070312 177.617188 C 240.339844 176.59375 243.820312 178.414062 244.847656 181.6875 C 245.871094 184.960938 244.050781 188.449219 240.78125 189.472656 C 237.511719 190.5 234.03125 188.675781 233.007812 185.402344 C 231.984375 182.128906 233.800781 178.644531 237.070312 177.617188 Z M 226.671875 186.128906 L 227.390625 188.429688 L 230.015625 188.214844 C 230.277344 188.71875 230.578125 189.195312 230.910156 189.636719 L 229.601562 191.917969 L 231.375 193.550781 L 233.539062 192.050781 C 234.015625 192.351562 234.511719 192.609375 235.027344 192.828125 L 235.03125 195.464844 L 237.382812 195.992188 L 238.507812 193.613281 C 239.0625 193.632812 239.621094 193.609375 240.183594 193.539062 L 241.503906 195.816406 L 243.804688 195.097656 L 243.589844 192.46875 C 244.089844 192.207031 244.566406 191.90625 245.007812 191.570312 L 247.289062 192.882812 L 248.917969 191.105469 L 247.421875 188.9375 C 247.71875 188.464844 247.980469 187.96875 248.195312 187.453125 L 250.828125 187.445312 L 251.355469 185.09375 L 248.980469 183.964844 C 249 183.410156 248.976562 182.851562 248.90625 182.285156 L 251.183594 180.964844 L 250.460938 178.664062 L 247.839844 178.878906 C 247.578125 178.375 247.277344 177.898438 246.941406 177.457031 L 248.25 175.175781 L 246.476562 173.542969 L 244.3125 175.042969 C 243.839844 174.742188 243.34375 174.480469 242.828125 174.261719 L 242.820312 171.628906 L 240.46875 171.101562 L 239.347656 173.480469 C 238.792969 173.457031 238.230469 173.480469 237.667969 173.554688 L 236.347656 171.273438 L 234.050781 171.996094 L 234.265625 174.625 C 233.761719 174.886719 233.289062 175.183594 232.84375 175.519531 L 230.566406 174.210938 L 228.933594 175.984375 L 230.433594 178.152344 C 230.132812 178.625 229.875 179.125 229.65625 179.640625 L 227.023438 179.644531 L 226.5 182 L 228.875 183.125 C 228.851562 183.679688 228.875 184.242188 228.949219 184.804688 L 226.671875 186.128906 " fill-opacity="1" fill-rule="nonzero"/><path fill="#caddff" d="M 213.097656 175.675781 C 215.265625 174.996094 217.574219 176.203125 218.25 178.375 C 218.929688 180.546875 217.722656 182.859375 215.554688 183.539062 C 213.386719 184.21875 211.082031 183.011719 210.402344 180.839844 C 209.722656 178.667969 210.929688 176.359375 213.097656 175.675781 Z M 206.199219 181.320312 L 206.675781 182.847656 L 208.417969 182.703125 C 208.589844 183.035156 208.789062 183.351562 209.011719 183.644531 L 208.140625 185.160156 L 209.320312 186.242188 L 210.753906 185.246094 C 211.066406 185.445312 211.398438 185.617188 211.738281 185.765625 L 211.742188 187.511719 L 213.300781 187.859375 L 214.046875 186.28125 C 214.414062 186.296875 214.789062 186.28125 215.160156 186.234375 L 216.035156 187.746094 L 217.5625 187.265625 L 217.417969 185.523438 C 217.75 185.351562 218.066406 185.152344 218.359375 184.929688 L 219.871094 185.800781 L 220.953125 184.621094 L 219.957031 183.183594 C 220.15625 182.871094 220.328125 182.539062 220.472656 182.199219 L 222.21875 182.195312 L 222.566406 180.632812 L 220.992188 179.886719 C 221.007812 179.519531 220.992188 179.144531 220.945312 178.773438 L 222.453125 177.894531 L 221.976562 176.367188 L 220.238281 176.511719 C 220.0625 176.175781 219.863281 175.863281 219.640625 175.570312 L 220.511719 174.054688 L 219.332031 172.972656 L 217.898438 173.96875 C 217.585938 173.769531 217.253906 173.597656 216.914062 173.453125 L 216.910156 171.703125 L 215.351562 171.355469 L 214.605469 172.933594 C 214.238281 172.917969 213.863281 172.933594 213.492188 172.980469 L 212.617188 171.46875 L 211.089844 171.949219 L 211.234375 173.691406 C 210.902344 173.863281 210.585938 174.0625 210.292969 174.285156 L 208.78125 173.414062 L 207.699219 174.59375 L 208.695312 176.03125 C 208.496094 176.34375 208.324219 176.675781 208.179688 177.015625 L 206.433594 177.023438 L 206.082031 178.582031 L 207.660156 179.328125 C 207.644531 179.695312 207.660156 180.070312 207.707031 180.441406 L 206.199219 181.320312 " fill-opacity="1" fill-rule="nonzero"/><path fill="#000000" d="M 333.921875 194.109375 C 333.902344 194.109375 333.882812 194.105469 333.863281 194.105469 C 333.664062 194.074219 333.53125 193.886719 333.5625 193.6875 L 333.855469 191.820312 C 333.886719 191.621094 334.074219 191.484375 334.269531 191.515625 C 334.46875 191.546875 334.605469 191.734375 334.574219 191.933594 L 334.28125 193.800781 C 334.253906 193.980469 334.097656 194.109375 333.921875 194.109375 " fill-opacity="1" fill-rule="nonzero"/><path fill="#000000" d="M 332.890625 200.644531 C 332.875 200.644531 332.851562 200.644531 332.835938 200.640625 C 332.636719 200.609375 332.5 200.421875 332.53125 200.222656 L 332.824219 198.355469 C 332.855469 198.15625 333.046875 198.023438 333.242188 198.050781 C 333.441406 198.085938 333.578125 198.269531 333.546875 198.46875 L 333.253906 200.335938 C 333.222656 200.515625 333.066406 200.644531 332.890625 200.644531 " fill-opacity="1" fill-rule="nonzero"/><path fill="#000000" d="M 331.261719 196.046875 C 331.242188 196.046875 331.222656 196.042969 331.199219 196.039062 L 329.367188 195.722656 C 329.171875 195.6875 329.035156 195.5 329.070312 195.300781 C 329.105469 195.101562 329.292969 194.972656 329.492188 195.003906 L 331.324219 195.320312 C 331.523438 195.355469 331.65625 195.546875 331.621094 195.746094 C 331.589844 195.921875 331.4375 196.046875 331.261719 196.046875 " fill-opacity="1" fill-rule="nonzero"/><path fill="#000000" d="M 337.679688 197.15625 C 337.65625 197.15625 337.636719 197.15625 337.617188 197.152344 L 335.78125 196.835938 C 335.585938 196.800781 335.453125 196.609375 335.488281 196.414062 C 335.519531 196.214844 335.707031 196.082031 335.90625 196.117188 L 337.742188 196.433594 C 337.9375 196.464844 338.070312 196.65625 338.039062 196.855469 C 338.007812 197.03125 337.851562 197.15625 337.679688 197.15625 " fill-opacity="1" fill-rule="nonzero"/><path fill="#000000" d="M 324.460938 323.324219 C 324.441406 323.324219 324.421875 323.320312 324.402344 323.316406 C 324.203125 323.285156 324.066406 323.101562 324.097656 322.902344 L 324.394531 321.035156 C 324.425781 320.835938 324.609375 320.699219 324.808594 320.730469 C 325.007812 320.761719 325.144531 320.949219 325.113281 321.148438 L 324.820312 323.015625 C 324.792969 323.191406 324.636719 323.324219 324.460938 323.324219 " fill-opacity="1" fill-rule="nonzero"/><path fill="#000000" d="M 323.429688 329.859375 C 323.410156 329.859375 323.390625 329.855469 323.371094 329.851562 C 323.171875 329.824219 323.039062 329.636719 323.070312 329.4375 L 323.363281 327.570312 C 323.394531 327.371094 323.582031 327.234375 323.78125 327.265625 C 323.980469 327.296875 324.113281 327.484375 324.082031 327.683594 L 323.789062 329.550781 C 323.761719 329.730469 323.605469 329.859375 323.429688 329.859375 " fill-opacity="1" fill-rule="nonzero"/><path fill="#000000" d="M 321.800781 325.261719 C 321.78125 325.261719 321.757812 325.257812 321.738281 325.253906 L 319.90625 324.9375 C 319.707031 324.902344 319.574219 324.714844 319.609375 324.515625 C 319.640625 324.316406 319.832031 324.183594 320.03125 324.21875 L 321.863281 324.535156 C 322.058594 324.570312 322.191406 324.757812 322.160156 324.957031 C 322.128906 325.136719 321.972656 325.261719 321.800781 325.261719 " fill-opacity="1" fill-rule="nonzero"/><path fill="#000000" d="M 328.214844 326.371094 C 328.195312 326.371094 328.175781 326.367188 328.152344 326.367188 L 326.320312 326.046875 C 326.125 326.011719 325.992188 325.824219 326.023438 325.625 C 326.058594 325.425781 326.246094 325.296875 326.445312 325.328125 L 328.277344 325.644531 C 328.476562 325.679688 328.609375 325.871094 328.574219 326.066406 C 328.542969 326.246094 328.390625 326.371094 328.214844 326.371094 " fill-opacity="1" fill-rule="nonzero"/><path fill="#ffffff" d="M 303.402344 332.890625 C 303.996094 332.808594 304.65625 332.855469 305.382812 333.097656 L 314 334.996094 C 314 334.996094 312.097656 337.335938 310.113281 337.46875 C 311.1875 339.140625 311.800781 340.625 311.800781 340.625 C 311.800781 340.625 315.621094 341.574219 316.410156 341.925781 C 317.195312 342.273438 318.328125 342.660156 318.878906 343.480469 C 319.429688 344.304688 319.367188 345.546875 319.367188 345.546875 L 310.222656 344.96875 L 302.015625 338.089844 L 286.953125 345.570312 L 287.625 336.28125 L 303.402344 332.890625 " fill-opacity="1" fill-rule="nonzero"/><path fill="#000000" d="M 310.363281 344.613281 L 318.996094 345.15625 C 318.96875 344.765625 318.878906 344.140625 318.574219 343.683594 C 318.160156 343.066406 317.300781 342.703125 316.613281 342.410156 C 316.488281 342.359375 316.371094 342.308594 316.261719 342.257812 C 315.636719 341.980469 312.769531 341.242188 311.714844 340.980469 C 311.601562 340.953125 311.507812 340.871094 311.464844 340.765625 C 311.460938 340.75 310.847656 339.289062 309.808594 337.667969 C 309.738281 337.558594 309.730469 337.421875 309.789062 337.308594 C 309.847656 337.191406 309.960938 337.117188 310.089844 337.105469 C 311.378906 337.019531 312.667969 335.871094 313.308594 335.21875 L 305.304688 333.453125 C 305.292969 333.453125 305.277344 333.449219 305.265625 333.445312 C 304.648438 333.238281 304.042969 333.171875 303.46875 333.25 L 287.964844 336.578125 L 287.363281 344.960938 L 301.851562 337.761719 C 301.980469 337.699219 302.136719 337.714844 302.246094 337.808594 Z M 286.953125 345.9375 C 286.882812 345.9375 286.8125 345.914062 286.75 345.875 C 286.640625 345.800781 286.582031 345.675781 286.589844 345.546875 L 287.257812 336.253906 C 287.273438 336.089844 287.386719 335.957031 287.546875 335.921875 L 303.328125 332.535156 C 303.335938 332.53125 303.34375 332.53125 303.351562 332.53125 C 304.039062 332.433594 304.753906 332.503906 305.480469 332.746094 L 314.078125 334.640625 C 314.203125 334.667969 314.300781 334.757812 314.34375 334.875 C 314.382812 334.996094 314.363281 335.128906 314.28125 335.226562 C 314.207031 335.316406 312.59375 337.277344 310.714844 337.742188 C 311.425781 338.917969 311.894531 339.925781 312.066406 340.316406 C 312.835938 340.507812 315.839844 341.273438 316.554688 341.589844 C 316.664062 341.640625 316.777344 341.6875 316.898438 341.738281 C 317.675781 342.070312 318.644531 342.480469 319.179688 343.277344 C 319.792969 344.191406 319.734375 345.507812 319.730469 345.566406 C 319.726562 345.660156 319.679688 345.753906 319.609375 345.816406 C 319.535156 345.882812 319.441406 345.914062 319.34375 345.910156 L 310.199219 345.332031 C 310.121094 345.328125 310.046875 345.300781 309.988281 345.25 L 301.960938 338.523438 L 287.117188 345.898438 C 287.066406 345.921875 287.007812 345.9375 286.953125 345.9375 " fill-opacity="1" fill-rule="nonzero"/><path fill="#5479f7" d="M 302.96875 340.753906 C 302.96875 340.753906 297.507812 332.246094 297.5 332.234375 C 297.066406 331.5625 293.476562 332.632812 292.8125 332.671875 C 290.433594 332.808594 287.957031 332.417969 285.582031 332.15625 C 280.511719 331.59375 275.472656 330.777344 270.484375 329.710938 C 266.414062 328.839844 262.316406 327.777344 258.707031 325.695312 C 253.957031 322.953125 251.460938 318.683594 249.558594 313.703125 C 248.121094 309.9375 246.40625 306.792969 244.261719 303.34375 C 241.085938 298.246094 235.8125 294.058594 231.4375 291.882812 C 224.636719 288.507812 216.730469 286.875 209.199219 288.382812 C 194.660156 291.285156 184.71875 299.769531 184.71875 299.769531 C 176.8125 306.09375 162.203125 328.136719 167.410156 338.753906 C 173.796875 351.769531 191.019531 344.15625 191.019531 344.15625 C 191.019531 344.15625 192.691406 346.886719 189.097656 355.199219 C 184.734375 365.292969 191.058594 366.644531 191.058594 366.644531 C 205.753906 373.839844 244.695312 372.234375 241.375 364.199219 C 237.820312 355.597656 237.761719 344.691406 237.761719 344.691406 C 242.671875 349.558594 253.3125 350.585938 253.3125 350.585938 C 253.3125 350.585938 262.296875 351.4375 268.003906 350.464844 C 299.925781 345.722656 302.96875 340.753906 302.96875 340.753906 " fill-opacity="1" fill-rule="nonzero"/><path fill="#000000" d="M 191.238281 337.804688 C 191.085938 337.804688 190.945312 337.710938 190.894531 337.558594 C 186.027344 323.460938 188.289062 312.070312 188.3125 311.957031 C 188.351562 311.761719 188.546875 311.632812 188.742188 311.675781 C 188.9375 311.714844 189.066406 311.910156 189.023438 312.105469 C 189 312.21875 186.785156 323.421875 191.582031 337.320312 C 191.648438 337.511719 191.546875 337.71875 191.355469 337.785156 C 191.316406 337.796875 191.277344 337.804688 191.238281 337.804688 " fill-opacity="1" fill-rule="nonzero"/><path fill="#000000" d="M 237.472656 345.132812 C 237.378906 345.132812 237.289062 345.097656 237.21875 345.03125 C 229.609375 337.589844 224.3125 320.3125 224.09375 319.582031 C 224.035156 319.386719 224.140625 319.183594 224.335938 319.125 C 224.527344 319.066406 224.730469 319.175781 224.789062 319.371094 C 224.84375 319.546875 230.253906 337.199219 237.726562 344.507812 C 237.871094 344.648438 237.871094 344.878906 237.730469 345.023438 C 237.660156 345.097656 237.566406 345.132812 237.472656 345.132812 " fill-opacity="1" fill-rule="nonzero"/><path fill="#ffffff" d="M 217.5 253.90625 C 220.4375 253.917969 223.144531 255.507812 224.617188 258.054688 C 225.300781 259.230469 225.921875 260.332031 226.046875 260.640625 C 226.335938 261.347656 226.964844 263.722656 229.273438 266.007812 C 229.5 266.234375 229.535156 266.59375 229.335938 266.847656 L 227.855469 268.742188 C 227.753906 268.871094 227.710938 269.039062 227.742188 269.199219 C 227.917969 270.210938 228.796875 273.878906 228.539062 274.539062 C 227.984375 275.941406 224.636719 276.324219 223.644531 276.40625 C 223.457031 276.421875 223.292969 276.523438 223.199219 276.6875 C 222.878906 277.269531 222.03125 278.9375 221.332031 283.089844 C 220.273438 289.421875 226.300781 290.40625 225.070312 291.027344 C 216.507812 295.355469 200.738281 294.371094 201.652344 292.570312 C 202.40625 291.089844 211.058594 287.257812 211.863281 276.84375 C 212.367188 270.347656 203.28125 269.816406 209.828125 257.453125 C 211.347656 254.582031 214.640625 253.890625 217.5 253.90625 " fill-opacity="1" fill-rule="nonzero"/><path fill="#000000" d="M 201.988281 292.714844 C 202.027344 292.761719 202.167969 292.886719 202.609375 293.042969 C 205.6875 294.117188 217.476562 294.363281 224.738281 290.785156 C 224.621094 290.695312 224.460938 290.578125 224.320312 290.480469 C 222.984375 289.546875 220.207031 287.601562 220.976562 283.03125 C 221.464844 280.109375 222.105469 277.914062 222.882812 276.511719 C 223.03125 276.242188 223.304688 276.066406 223.613281 276.042969 C 225.492188 275.886719 227.820312 275.363281 228.199219 274.40625 C 228.359375 273.988281 227.820312 271.410156 227.59375 270.3125 C 227.5 269.875 227.421875 269.5 227.382812 269.261719 C 227.335938 269 227.40625 268.726562 227.570312 268.515625 L 229.050781 266.621094 C 229.128906 266.515625 229.117188 266.367188 229.015625 266.269531 C 226.949219 264.21875 226.199219 262.125 225.835938 261.117188 C 225.789062 260.980469 225.746094 260.867188 225.710938 260.777344 C 225.652344 260.636719 225.394531 260.121094 224.304688 258.238281 C 222.894531 255.800781 220.285156 254.28125 217.496094 254.269531 C 217.472656 254.269531 217.445312 254.269531 217.421875 254.269531 C 214.894531 254.269531 211.613281 254.859375 210.148438 257.625 C 206.097656 265.273438 208.136719 268.203125 210.105469 271.035156 C 211.242188 272.675781 212.417969 274.371094 212.226562 276.871094 C 211.59375 285.03125 206.316406 289.171875 203.476562 291.398438 C 202.765625 291.957031 202.148438 292.441406 201.988281 292.714844 Z M 209.214844 294.460938 C 205.292969 294.460938 202.199219 293.960938 201.488281 293.246094 C 201.242188 293 201.183594 292.691406 201.328125 292.40625 C 201.539062 291.988281 202.132812 291.527344 203.03125 290.820312 C 205.777344 288.667969 210.894531 284.65625 211.5 276.816406 C 211.671875 274.570312 210.621094 273.058594 209.507812 271.453125 C 207.511719 268.582031 205.25 265.324219 209.503906 257.28125 C 210.800781 254.832031 213.539062 253.539062 217.417969 253.539062 C 217.445312 253.539062 217.472656 253.539062 217.5 253.539062 C 220.546875 253.554688 223.394531 255.214844 224.933594 257.871094 C 226.214844 260.078125 226.34375 260.398438 226.386719 260.503906 C 226.425781 260.597656 226.46875 260.722656 226.523438 260.871094 C 226.863281 261.828125 227.578125 263.816406 229.53125 265.75 C 229.890625 266.109375 229.929688 266.675781 229.621094 267.070312 L 228.144531 268.964844 C 228.105469 269.015625 228.089844 269.078125 228.097656 269.136719 C 228.136719 269.363281 228.214844 269.734375 228.304688 270.160156 C 228.84375 272.75 229.082031 274.15625 228.875 274.671875 C 228.265625 276.226562 225.035156 276.65625 223.675781 276.769531 C 223.609375 276.773438 223.550781 276.808594 223.519531 276.867188 C 222.601562 278.523438 222.019531 281.199219 221.691406 283.152344 C 221.003906 287.269531 223.429688 288.96875 224.738281 289.882812 C 225.292969 290.273438 225.628906 290.507812 225.601562 290.875 C 225.589844 291.015625 225.519531 291.210938 225.234375 291.351562 C 220.734375 293.628906 214.28125 294.460938 209.214844 294.460938 " fill-opacity="1" fill-rule="nonzero"/><path fill="#000000" d="M 222.492188 263.917969 L 225.917969 259.621094 C 227.675781 257.417969 227.0625 254.175781 224.628906 252.753906 C 223.953125 252.359375 223.164062 251.949219 222.277344 251.566406 C 213.480469 247.773438 203.398438 254.035156 203.386719 263.625 C 203.382812 267.554688 206.003906 272.105469 211.578125 276.148438 C 211.578125 276.148438 215.492188 273.058594 215.441406 269.714844 C 215.441406 269.714844 212.601562 266.339844 216.605469 264.632812 C 217.371094 264.304688 218.246094 264.328125 218.992188 264.699219 C 220.199219 265.292969 221.652344 264.96875 222.492188 263.917969 " fill-opacity="1" fill-rule="nonzero"/><path fill="#000000" d="M 217.273438 271.613281 C 216.132812 271.613281 214.679688 271.128906 213.597656 269.082031 C 213.503906 268.90625 213.574219 268.683594 213.75 268.589844 C 213.929688 268.496094 214.148438 268.5625 214.242188 268.742188 C 215.949219 271.972656 218.625 270.628906 218.738281 270.570312 C 218.917969 270.476562 219.136719 270.546875 219.230469 270.722656 C 219.324219 270.902344 219.257812 271.121094 219.078125 271.214844 C 219.0625 271.222656 218.292969 271.613281 217.273438 271.613281 " fill-opacity="1" fill-rule="nonzero"/><path fill="#000000" d="M 207.972656 254.519531 C 207.972656 254.519531 205.003906 244.230469 194.164062 246.167969 C 187.394531 247.375 181.484375 251.929688 178.238281 259.359375 C 175.835938 264.859375 175.9375 269.722656 175.40625 275.488281 C 174.933594 280.640625 170.351562 284.085938 169.3125 288.988281 C 168.046875 294.972656 173.863281 299.289062 179.464844 298.175781 C 185.726562 296.933594 191.535156 290.378906 194.097656 284.886719 C 196.75 279.214844 197.1875 272.910156 198.527344 266.871094 C 199.105469 264.253906 199.546875 260.640625 201.625 258.832031 C 202.691406 257.902344 206.203125 257.796875 206.8125 256.671875 C 206.8125 256.667969 207.972656 254.519531 207.972656 254.519531 " fill-opacity="1" fill-rule="nonzero"/></svg>